<?xml version="1.0" standalone="no"?>
<!DOCTYPE svg PUBLIC "-//W3C//DTD SVG 20010904//EN"
 "http://www.w3.org/TR/2001/REC-SVG-20010904/DTD/svg10.dtd">
<svg version="1.0" xmlns="http://www.w3.org/2000/svg"
 width="438.000000pt" height="438.000000pt" viewBox="0 0 438.000000 438.000000"
 preserveAspectRatio="xMidYMid meet">
<metadata>
Created by potrace 1.14, written by Peter Selinger 2001-2017
</metadata>
<g transform="translate(0.000000,438.000000) scale(0.100000,-0.100000)"
fill="#000000" stroke="none">
<path d="M0 2236 l0 -2144 43 5 c62 7 61 7 95 67 45 78 58 82 129 45 32 -16
63 -37 69 -44 16 -21 22 -20 121 26 161 74 415 162 603 209 118 30 139 36 189
54 77 28 82 21 36 -54 -33 -54 -155 -362 -155 -391 0 -5 34 -9 75 -9 58 0 75
3 75 14 0 33 101 275 169 406 55 107 79 137 114 145 29 7 32 14 42 105 7 61
22 509 17 525 -1 6 -28 28 -60 50 -65 46 -455 433 -503 500 -27 37 -37 44 -63
43 -45 -1 -163 48 -223 94 -61 47 -251 241 -335 344 -50 60 -61 81 -61 111 -1
47 48 153 70 153 9 0 53 -38 99 -84 46 -46 109 -106 141 -133 66 -56 169 -121
160 -101 -3 7 -24 56 -45 108 -22 52 -55 129 -74 170 -20 41 -39 86 -43 100
-4 14 -27 66 -51 117 -24 51 -48 111 -54 135 -11 48 -12 160 -1 198 l7 24 11
-29 c7 -17 17 -56 23 -88 11 -56 13 -58 39 -52 21 4 33 -1 55 -24 16 -17 33
-28 38 -25 4 3 8 27 8 53 0 37 7 57 30 89 46 64 140 156 150 146 5 -5 12 -47
17 -93 8 -87 27 -117 39 -64 14 65 17 70 25 38 4 -16 7 -48 8 -69 1 -41 10
-74 44 -165 25 -65 113 -159 158 -168 20 -4 29 -11 27 -22 -5 -24 -52 -25
-130 -1 -73 22 -95 20 -62 -5 28 -21 110 -45 180 -52 115 -11 333 57 349 108
4 13 22 56 41 96 34 72 43 113 24 113 -5 0 -13 -6 -17 -13 -14 -24 -86 -65
-126 -73 -45 -8 -123 11 -153 37 -28 26 -34 24 -34 -14 0 -26 -6 -36 -25 -45
-56 -26 -65 -16 -90 98 -25 114 -31 140 -49 205 -9 32 -16 79 -16 102 0 37 3
43 21 43 48 0 75 -43 95 -152 8 -50 30 -49 37 1 6 51 35 90 66 91 29 0 101
-47 101 -65 0 -7 -14 -25 -31 -40 -17 -14 -29 -28 -27 -30 2 -3 28 5 56 17
l52 22 42 -24 c61 -33 78 -50 98 -93 14 -30 19 -35 28 -24 13 15 119 17 130 2
12 -17 92 -56 102 -50 6 3 10 13 10 21 0 8 14 20 30 25 22 8 30 17 30 35 0 14
-7 27 -16 31 -8 3 -20 16 -25 29 -6 18 -16 24 -38 24 -32 0 -125 33 -155 55
-18 14 -14 20 67 105 47 49 116 133 152 185 71 102 85 116 85 88 2 -208 11
-425 18 -448 28 -82 25 -93 -31 -152 -28 -30 -77 -72 -107 -93 -31 -21 -62
-45 -69 -54 -27 -32 36 -17 112 27 40 23 95 53 121 67 l48 25 17 -25 c9 -14
53 -63 98 -110 102 -106 122 -101 63 15 -22 44 -39 89 -38 100 4 28 44 32 58
6 16 -30 32 -26 20 5 -20 50 -12 70 38 106 89 65 315 328 362 423 8 17 32 57
52 89 21 33 38 65 38 72 0 7 4 14 9 16 10 4 111 214 134 278 8 25 21 70 27
100 7 30 16 66 21 80 19 55 47 241 53 343 l5 107 -1555 0 -1554 0 0 -2144z
m2694 1617 c-27 -124 -165 -419 -263 -565 -56 -84 -71 -99 -71 -71 0 21 23 89
33 99 4 4 7 16 7 26 0 10 4 26 9 36 5 9 39 80 75 156 37 76 87 172 111 212 25
41 45 76 45 79 0 9 43 55 52 55 5 0 6 -12 2 -27z m-944 -409 c0 -10 -107 -110
-178 -169 -34 -27 -57 -51 -52 -53 17 -6 167 88 221 138 82 76 91 67 29 -28
-61 -95 -136 -186 -165 -202 -25 -13 -31 -12 -78 14 -29 16 -78 42 -109 59
-32 17 -58 36 -58 42 0 7 30 25 67 40 63 27 166 81 263 138 46 27 60 32 60 21z
m-918 -281 c-5 -16 -34 -25 -45 -14 -16 16 -22 178 -6 197 11 14 16 3 34 -78
12 -51 19 -98 17 -105z m543 157 c-16 -4 -25 -8 -20 -9 6 -1 1 -8 -9 -16 -26
-20 -66 -19 -66 0 0 9 9 15 24 15 14 0 28 5 31 10 3 6 21 9 38 9 l32 -1 -30
-8z m505 -55 c-14 -25 -28 -45 -32 -45 -5 0 -8 -6 -8 -14 0 -8 -3 -16 -7 -18
-5 -1 -26 -25 -48 -53 -67 -83 -71 -86 -100 -73 -14 6 -24 16 -22 21 5 15 231
236 236 231 3 -3 -6 -25 -19 -49z m-930 -11 c0 -32 -4 -44 -15 -44 -16 0 -20
36 -9 77 10 36 24 16 24 -33z m235 -4 c4 -6 -7 -10 -25 -10 -18 0 -29 4 -25
10 3 6 15 10 25 10 10 0 22 -4 25 -10z m-461 -66 c19 -58 15 -77 -20 -93 -43
-19 -47 -15 -39 47 5 31 8 66 9 77 1 22 17 38 27 27 4 -4 14 -30 23 -58z m36
-123 c0 -14 -88 -91 -105 -91 -8 0 -15 3 -15 6 0 15 25 51 48 71 27 23 72 31
72 14z m1642 -136 c-30 -50 -50 -63 -59 -38 -5 11 5 27 32 50 52 45 60 42 27
-12z m-874 -308 c-29 -29 -147 -61 -192 -53 -53 10 -54 26 -1 26 55 0 168 35
187 57 12 15 13 15 16 0 2 -10 -2 -23 -10 -30z m-23 -2027 c3 -5 -1 -10 -10
-10 -8 0 -18 -7 -21 -15 -7 -18 -58 -21 -52 -2 5 13 46 37 65 37 6 0 15 -4 18
-10z"/>
<path d="M3430 4353 c0 -16 -5 -93 -11 -173 -23 -315 41 -643 158 -815 26 -39
32 -35 -192 -148 -77 -39 -199 -103 -270 -143 -72 -39 -167 -90 -212 -113 -45
-22 -85 -46 -89 -52 -12 -20 27 -39 82 -39 29 0 64 -4 78 -10 29 -11 56 -2 98
32 25 19 30 20 53 8 23 -12 28 -11 55 15 l30 29 0 -26 c0 -15 6 -39 14 -55 8
-15 20 -48 27 -72 16 -54 61 -117 100 -139 16 -10 29 -25 29 -35 0 -21 29 -33
113 -47 171 -28 267 -20 391 33 90 38 104 74 18 44 -83 -28 -168 -49 -190 -45
-21 3 -20 5 11 38 48 51 79 104 110 191 22 61 27 90 26 155 -3 138 0 174 16
174 32 0 188 -95 253 -155 45 -40 52 -61 40 -125 -11 -64 -43 -109 -114 -161
-39 -29 -51 -43 -47 -57 3 -12 -24 -70 -71 -155 -42 -75 -76 -138 -76 -141 0
-3 -14 -29 -31 -58 -33 -56 -104 -196 -134 -263 -10 -22 -30 -67 -45 -100 -15
-33 -34 -76 -43 -95 -116 -262 -159 -350 -202 -415 -34 -51 -260 -278 -370
-371 -119 -101 -386 -296 -462 -336 -68 -37 -85 -42 -143 -42 -58 0 -74 5
-135 39 -130 72 -510 334 -572 394 -12 11 -26 21 -32 21 -5 0 -10 -45 -10
-102 -2 -257 -45 -503 -88 -503 -20 0 -26 -14 -28 -67 -1 -29 -5 -70 -10 -91
-8 -39 -3 -73 37 -237 11 -47 22 -97 25 -113 l5 -27 1101 0 c1079 0 1101 0
1122 20 25 23 140 86 225 123 122 53 129 55 171 50 23 -4 61 -17 83 -29 23
-13 44 -24 49 -24 4 0 7 454 7 1010 0 556 -3 1010 -7 1010 -5 0 -30 -28 -57
-63 -96 -121 -169 -187 -208 -187 -29 0 -98 78 -98 111 0 14 73 84 145 139 28
21 63 50 79 64 39 34 60 40 93 23 15 -8 34 -12 41 -10 9 4 12 228 12 1074 l0
1069 -475 0 -475 0 0 -27z m268 -675 c59 -86 92 -126 150 -184 23 -23 42 -47
42 -52 0 -5 -30 -13 -66 -17 -79 -8 -80 -8 -118 90 -15 39 -32 79 -36 90 -17
42 -30 89 -30 111 0 12 -6 25 -12 27 -8 4 -7 6 3 6 10 1 38 -30 67 -71z m219
40 c-3 -8 -6 -5 -6 6 -1 11 2 17 5 13 3 -3 4 -12 1 -19z m36 -43 c4 -8 2 -17
-3 -20 -6 -4 -10 3 -10 14 0 25 6 27 13 6z m-320 -125 c22 -47 47 -100 56
-117 14 -30 14 -34 -2 -50 -29 -29 -39 -10 -98 193 -10 32 -11 100 -2 74 3 -8
24 -53 46 -100z m367 42 c0 -6 3 -12 8 -14 4 -1 25 -29 46 -61 32 -48 37 -60
25 -68 -10 -6 -20 -1 -36 19 -28 34 -92 164 -86 175 5 9 43 -36 43 -51z m178
-251 c31 -40 52 -84 52 -108 0 -14 -3 -13 -21 3 -36 32 -110 134 -104 144 10
16 45 -3 73 -39z m-161 -11 c32 -27 82 -67 110 -87 29 -21 53 -42 53 -47 0 -5
18 -26 40 -46 33 -30 40 -44 40 -73 0 -24 -5 -37 -13 -37 -20 0 -187 112 -181
122 3 4 26 8 52 8 45 1 46 1 22 14 -14 7 -68 23 -120 35 -184 43 -207 51 -219
77 -27 61 -3 82 96 83 60 1 64 0 120 -49z m-249 -37 c3 -19 -1 -23 -26 -23
-36 0 -57 21 -39 39 20 20 62 9 65 -16z m-118 -23 c0 -12 -33 -30 -56 -30 -16
0 -16 1 1 20 19 21 55 27 55 10z m76 -81 c16 -6 47 -32 69 -56 39 -45 40 -47
40 -122 0 -66 -4 -82 -28 -119 -66 -101 -212 -149 -294 -95 -29 20 -40 11 -25
-22 13 -28 -6 -55 -39 -55 -23 0 -41 28 -110 168 -52 106 -56 127 -28 145 13
8 23 3 49 -26 37 -42 50 -40 48 6 -2 49 47 127 79 127 7 0 21 4 31 9 9 6 44
17 77 26 33 10 65 19 70 20 19 6 32 5 61 -6z m-429 -371 c-3 -8 -6 -5 -6 6 -1
11 2 17 5 13 3 -3 4 -12 1 -19z m413 -122 c0 -8 -17 -28 -37 -43 -31 -24 -47
-28 -112 -31 -42 -2 -87 1 -101 7 -22 8 -19 10 25 10 52 1 137 27 176 55 29
20 49 21 49 2z"/>
<path d="M2653 2921 c6 -51 30 -82 49 -63 9 9 7 20 -8 47 -10 20 -25 42 -33
48 -12 10 -13 5 -8 -32z"/>
<path d="M2281 2058 c-35 -94 -44 -137 -31 -153 17 -20 89 -51 109 -46 8 1 35
22 59 45 57 54 52 77 -21 110 -29 13 -61 33 -71 45 -24 27 -34 27 -45 -1z"/>
<path d="M2199 1479 c-13 -11 -17 -18 -9 -15 8 3 23 9 33 12 9 4 17 10 17 15
0 15 -16 10 -41 -12z"/>
<path d="M243 126 c-17 -14 -33 -23 -37 -19 -5 5 -56 -42 -56 -53 0 -2 9 -4
20 -4 14 0 18 5 13 17 -5 13 -2 15 11 10 10 -4 20 -7 22 -7 3 0 0 -9 -6 -19
-18 -35 -2 -51 51 -51 l49 0 -6 39 c-4 28 -1 46 11 65 20 30 19 32 -16 41 -19
5 -33 0 -56 -19z"/>
<path d="M0 20 c0 -15 7 -20 26 -20 20 0 25 4 20 16 -3 9 -6 18 -6 20 0 2 -9
4 -20 4 -13 0 -20 -7 -20 -20z"/>
<path d="M117 33 c-4 -3 -7 -11 -7 -17 0 -6 5 -5 12 2 6 6 9 14 7 17 -3 3 -9
2 -12 -2z"/>
<path d="M4352 28 c-18 -18 -15 -28 8 -28 13 0 20 7 20 20 0 23 -10 26 -28 8z"/>
<path d="M163 23 c-20 -8 -15 -23 7 -23 11 0 20 7 20 15 0 15 -6 17 -27 8z"/>
</g>
</svg>
